<?xml version="1.0" encoding="UTF-8"?>
<svg xmlns="http://www.w3.org/2000/svg" id="Ebene_1" data-name="Ebene 1" viewBox="0 0 112.56 100.1">
  <defs>
    <style>.cls-1{fill:#fff;}.cls-2{fill:#c6c6c6;}.cls-3{fill:#ffd500;}.cls-4{fill:#1d1d1b;}</style>
  </defs>
  <rect class="cls-1" width="112.56" height="100.1"></rect>
  <rect class="cls-2" x="14.62" y="14.62" width="83.32" height="70.87"></rect>
  <rect class="cls-3" x="43.11" y="18.27" width="51.18" height="51.33"></rect>
  <path class="cls-4" d="M73,62.89V55.44h-3.7v6.9a2.44,2.44,0,0,1-2.39,2.72c-1.41,0-2.39-1-2.39-2.72v-6.9H60.82v7.44a6.09,6.09,0,0,0,12.16,0"></path>
  <polygon class="cls-4" points="85.09 68.55 86.22 68.55 86.22 55.44 82.55 55.44 82.55 61.28 75.83 55.2 74.79 55.2 74.78 68.38 78.47 68.38 78.47 62.54 85.09 68.55"></polygon>
  <rect class="cls-4" x="88.2" y="55.44" width="3.68" height="12.93"></rect>
  <rect class="cls-4" x="43.11" y="69.6" width="51.18" height="12.23"></rect>
  <rect class="cls-1" x="18.27" y="18.27" width="24.84" height="63.56"></rect>
  <polygon class="cls-3" points="91.88 78.13 85.62 78.13 85.62 77.55 88.89 72.4 85.67 72.4 85.67 70.63 91.88 70.63 91.88 71.06 88.48 76.36 91.88 76.36 91.88 78.13"></polygon>
  <path class="cls-3" d="M80.14,75.29l.85-2,.81,2Zm-6.69-1.11H72.16V72.4h1.29c.8,0,1,.4,1,.88s-.24.9-1,.9m7.82-3.62h-.48l-3.9,7.36L75.11,75.4a2.1,2.1,0,0,0,1.32-2.12,2.61,2.61,0,0,0-2.78-2.65H70.07v7.5h2.09V76h1.13l1.45,2.18H79l.62-1.3h2.77l.63,1.3h2.18Z"></path>
  <path class="cls-3" d="M68.61,74.68a3.86,3.86,0,0,1-7.71-.29A4,4,0,0,1,68,72.09l-1.53,1.08a1.87,1.87,0,0,0-1.62-.86,2.05,2.05,0,1,0,0,4.1c1.06,0,1.65-.44,1.79-1H65.42V74.06h3.19Z"></path>
</svg>
